# xmcd CD database file
#
# Track frame offsets:
#	150
#	18165
#	41302
#	66845
#	84975
#	110402
#	132650
#	168992
#	192942
#	213767
#	234772
#
# Disc length: 3302 seconds
#
# Revision: 0
# Processed by: cddbd v1.5.2PL0 Copyright (c) Steve Scherf et al.
# Submitted via: CDex 1.51
#
DISCID=840ce40b
DTITLE=Dick Powell - Blue Plate Special
DYEAR=2004
DGENRE=Blues
TTITLE0=Rocket '88
TTITLE1=Sweet Home Chicago
TTITLE2=The Sky Is Falling
TTITLE3=She Caught The Katy
TTITLE4=Good Bye, My Lady
TTITLE5=Walkin' Blues
TTITLE6=Messin' With The Kid
TTITLE7=Same Old Blues
TTITLE8=Can't Take My Blues
TTITLE9=Lose The Blues
TTITLE10=Big Ten Inch
EXTD=YEAR: 2004
EXTT0=
EXTT1=
EXTT2=
EXTT3=
EXTT4=
EXTT5=
EXTT6=
EXTT7=
EXTT8=
EXTT9=
EXTT10=
PLAYORDER=
